<mxfile host="app.diagrams.net" modified="2022-01-16T19:37:19.912Z" agent="5.0 (Windows)" etag="5fFHkccU-8pTwPYes7Tm" version="15.5.9" type="github">
  <diagram id="kgpKYQtTHZ0yAKxKKP6v" name="Page-1">
    <mxGraphModel dx="782" dy="392" grid="1" gridSize="10" guides="1" tooltips="1" connect="1" arrows="1" fold="1" page="1" pageScale="1" pageWidth="850" pageHeight="1100" math="0" shadow="0">
      <root>
        <mxCell id="0" />
        <mxCell id="1" parent="0" />
        <mxCell id="3nuBFxr9cyL0pnOWT2aG-1" value=":Chat Server" style="shape=umlLifeline;perimeter=lifelinePerimeter;container=1;collapsible=0;recursiveResize=0;rounded=0;shadow=0;strokeWidth=1;fillColor=#fff2cc;strokeColor=#A30000;" parent="1" vertex="1">
          <mxGeometry x="490" y="30" width="100" height="370" as="geometry" />
        </mxCell>
        <mxCell id="3nuBFxr9cyL0pnOWT2aG-3" value="1. Shares public keys with each other" style="verticalAlign=bottom;startArrow=block;endArrow=block;startSize=6;shadow=0;strokeWidth=1;startFill=1;endFill=1;endSize=6;" parent="3nuBFxr9cyL0pnOWT2aG-1" edge="1">
          <mxGeometry relative="1" as="geometry">
            <mxPoint x="-460" y="70" as="sourcePoint" />
            <mxPoint x="-210" y="70" as="targetPoint" />
          </mxGeometry>
        </mxCell>
        <mxCell id="3nuBFxr9cyL0pnOWT2aG-8" value="3. Directs the encrypted message to Bob" style="verticalAlign=bottom;endArrow=none;entryX=0.47;entryY=0.408;shadow=0;strokeWidth=1;entryDx=0;entryDy=0;entryPerimeter=0;endFill=0;startArrow=block;startFill=1;" parent="1" target="3nuBFxr9cyL0pnOWT2aG-1" edge="1">
          <mxGeometry relative="1" as="geometry">
            <mxPoint x="270" y="181" as="sourcePoint" />
            <mxPoint x="345" y="160.0000000000001" as="targetPoint" />
          </mxGeometry>
        </mxCell>
        <mxCell id="3nuBFxr9cyL0pnOWT2aG-9" value="5. Directs the encrypted message to Alice" style="verticalAlign=bottom;endArrow=block;shadow=0;strokeWidth=1;" parent="1" source="3nuBFxr9cyL0pnOWT2aG-1" edge="1">
          <mxGeometry relative="1" as="geometry">
            <mxPoint x="260" y="310" as="sourcePoint" />
            <mxPoint x="30" y="310" as="targetPoint" />
          </mxGeometry>
        </mxCell>
        <mxCell id="Mvj1sCObB3ljb3c7r6MM-4" style="edgeStyle=orthogonalEdgeStyle;rounded=0;orthogonalLoop=1;jettySize=auto;html=1;dashed=1;endArrow=oval;endFill=1;startArrow=none;strokeColor=#A30000;" edge="1" parent="1" source="Mvj1sCObB3ljb3c7r6MM-7">
          <mxGeometry relative="1" as="geometry">
            <mxPoint x="275" y="400" as="targetPoint" />
          </mxGeometry>
        </mxCell>
        <mxCell id="Mvj1sCObB3ljb3c7r6MM-1" value="Bob" style="shape=umlActor;verticalLabelPosition=bottom;verticalAlign=top;html=1;outlineConnect=0;fillColor=#fff2cc;strokeColor=#A30000;" vertex="1" parent="1">
          <mxGeometry x="260" y="30" width="30" height="40" as="geometry" />
        </mxCell>
        <mxCell id="Mvj1sCObB3ljb3c7r6MM-3" style="edgeStyle=orthogonalEdgeStyle;rounded=0;orthogonalLoop=1;jettySize=auto;html=1;endArrow=oval;endFill=1;dashed=1;strokeColor=#A30000;" edge="1" parent="1" source="Mvj1sCObB3ljb3c7r6MM-2">
          <mxGeometry relative="1" as="geometry">
            <mxPoint x="35" y="400" as="targetPoint" />
          </mxGeometry>
        </mxCell>
        <mxCell id="Mvj1sCObB3ljb3c7r6MM-2" value="Alice" style="shape=umlActor;verticalLabelPosition=bottom;verticalAlign=top;html=1;outlineConnect=0;fillColor=#fff2cc;strokeColor=#A30000;" vertex="1" parent="1">
          <mxGeometry x="20" y="30" width="30" height="40" as="geometry" />
        </mxCell>
        <mxCell id="Mvj1sCObB3ljb3c7r6MM-5" value="2. Alice encrypts message using Bob&#39;s public key" style="verticalAlign=bottom;startArrow=none;endArrow=block;startSize=6;shadow=0;strokeWidth=1;startFill=0;endFill=1;endSize=6;entryX=0.48;entryY=0.314;entryDx=0;entryDy=0;entryPerimeter=0;" edge="1" parent="1" target="3nuBFxr9cyL0pnOWT2aG-1">
          <mxGeometry relative="1" as="geometry">
            <mxPoint x="30" y="146" as="sourcePoint" />
            <mxPoint x="290" y="110" as="targetPoint" />
          </mxGeometry>
        </mxCell>
        <mxCell id="Mvj1sCObB3ljb3c7r6MM-6" value="4. Bob encrypts message using Alice&#39;s public key" style="verticalAlign=bottom;endArrow=none;shadow=0;strokeWidth=1;endFill=0;startArrow=block;startFill=1;" edge="1" parent="1" source="3nuBFxr9cyL0pnOWT2aG-1">
          <mxGeometry relative="1" as="geometry">
            <mxPoint x="445" y="260" as="sourcePoint" />
            <mxPoint x="270" y="280" as="targetPoint" />
          </mxGeometry>
        </mxCell>
        <mxCell id="Mvj1sCObB3ljb3c7r6MM-7" value="&lt;font style=&quot;font-size: 10px&quot;&gt;Decrypts the encrypted message using the private key&lt;/font&gt;" style="shape=note;whiteSpace=wrap;html=1;backgroundOutline=1;darkOpacity=0.05;fillColor=#fff2cc;strokeColor=#A30000;" vertex="1" parent="1">
          <mxGeometry x="205" y="200" width="140" height="40" as="geometry" />
        </mxCell>
        <mxCell id="Mvj1sCObB3ljb3c7r6MM-8" value="" style="edgeStyle=orthogonalEdgeStyle;rounded=0;orthogonalLoop=1;jettySize=auto;html=1;dashed=1;endArrow=none;endFill=1;strokeColor=#A30000;" edge="1" parent="1" source="Mvj1sCObB3ljb3c7r6MM-1" target="Mvj1sCObB3ljb3c7r6MM-7">
          <mxGeometry relative="1" as="geometry">
            <mxPoint x="275" y="400" as="targetPoint" />
            <mxPoint x="275" y="70" as="sourcePoint" />
          </mxGeometry>
        </mxCell>
        <mxCell id="Mvj1sCObB3ljb3c7r6MM-10" value="&lt;font style=&quot;font-size: 10px&quot;&gt;Decrypts the encrypted message using the private key&lt;/font&gt;" style="shape=note;whiteSpace=wrap;html=1;backgroundOutline=1;darkOpacity=0.05;fillColor=#fff2cc;strokeColor=#A30000;" vertex="1" parent="1">
          <mxGeometry x="10" y="340" width="140" height="40" as="geometry" />
        </mxCell>
      </root>
    </mxGraphModel>
  </diagram>
</mxfile>
